# xmcd
#
# Track frame offsets: 
#        150
#        27521
#        44648
#        62771
#        82559
#        92457
#        102821
#        123439
#        144151
#        172657
#
# Disc length: 2483 seconds
#
# Revision: 0
# Processed by: cddbd v1.5.2PL0 Copyright (c) Steve Scherf et al.
# Submitted via: ExactAudioCopy v0.99pb3
#
DISCID=6f09b10a
DTITLE=Charlie Parr - Barnswallow
DYEAR=2013
DGENRE=Country
TTITLE0=Jimmy Bell
TTITLE1=Nowhere Fast
TTITLE2=My Wife
TTITLE3=Motorcycle Blues
TTITLE4=Badger
TTITLE5=Groundhog Day Blues
TTITLE6=Henry Goes to the Bank
TTITLE7=True Friends
TTITLE8=Jesus Is a Hobo
TTITLE9=Rattlesnake
EXTD=
EXTT0=
EXTT1=
EXTT2=
EXTT3=
EXTT4=
EXTT5=
EXTT6=
EXTT7=
EXTT8=
EXTT9=
PLAYORDER=
